# xmcd
#
# Track frame offsets:
#	150
#	15175
#	30412
#	43425
#	57587
#	68687
#	78587
#	93512
#	106437
#	120612
#
# Disc length: 1817
#
# Revision: 2
# Processed by: cddbd v1.5.1PL0 Copyright (c) Steve Scherf et al.
# Submitted via: CDex 1.50beta10
# Normalized: r1:DSETVAR1
#
DISCID=7e07170a
DTITLE=Various Artist - Country Pride
DYEAR=1999
DGENRE=Country
TTITLE0=Charlie Daniels - In America
TTITLE1=Willie Nelson - Living In The Promiseland
TTITLE2=Waylon Jennings - The Eagle
TTITLE3=Johnny Cash - Ragged Old Flag
TTITLE4=Charlie Rich - America, The Beautiful
TTITLE5=Moe Bandy - The All American Dream
TTITLE6=Merle Haggard - Amber Waves Of Grain
TTITLE7=Johnny Paycheck - All American Man
TTITLE8=B.J. Thomas - America Is
TTITLE9=Johnny Cash and Marty Robbins - Song Of The Patriot
EXTD=YEAR: 1999
EXTT0=
EXTT1=
EXTT2=
EXTT3=
EXTT4=
EXTT5=
EXTT6=
EXTT7=
EXTT8=
EXTT9=
PLAYORDER=
